<mxfile host="Electron" agent="Mozilla/5.0 (Windows NT 10.0; Win64; x64) AppleWebKit/537.36 (KHTML, like Gecko) draw.io/26.0.16 Chrome/132.0.6834.196 Electron/34.2.0 Safari/537.36" version="26.0.16">
  <diagram name="第 1 页" id="QRG4NogOlAGouBmoYJWM">
    <mxGraphModel dx="2514" dy="984" grid="1" gridSize="10" guides="1" tooltips="1" connect="1" arrows="1" fold="1" page="1" pageScale="1" pageWidth="827" pageHeight="1169" math="0" shadow="0">
      <root>
        <mxCell id="0" />
        <mxCell id="1" parent="0" />
        <mxCell id="4fUZzTiB3mX0XlUdINxK-7" style="edgeStyle=orthogonalEdgeStyle;rounded=0;orthogonalLoop=1;jettySize=auto;html=1;exitX=1;exitY=0.5;exitDx=0;exitDy=0;entryX=0;entryY=0.5;entryDx=0;entryDy=0;" parent="1" source="4fUZzTiB3mX0XlUdINxK-1" target="4fUZzTiB3mX0XlUdINxK-2" edge="1">
          <mxGeometry relative="1" as="geometry" />
        </mxCell>
        <mxCell id="4fUZzTiB3mX0XlUdINxK-8" style="edgeStyle=orthogonalEdgeStyle;rounded=0;orthogonalLoop=1;jettySize=auto;html=1;exitX=1;exitY=0.5;exitDx=0;exitDy=0;entryX=0;entryY=0.5;entryDx=0;entryDy=0;" parent="1" source="4fUZzTiB3mX0XlUdINxK-1" target="4fUZzTiB3mX0XlUdINxK-6" edge="1">
          <mxGeometry relative="1" as="geometry" />
        </mxCell>
        <mxCell id="4fUZzTiB3mX0XlUdINxK-9" style="edgeStyle=orthogonalEdgeStyle;rounded=0;orthogonalLoop=1;jettySize=auto;html=1;exitX=1;exitY=0.5;exitDx=0;exitDy=0;entryX=0;entryY=0.5;entryDx=0;entryDy=0;" parent="1" source="4fUZzTiB3mX0XlUdINxK-1" target="4fUZzTiB3mX0XlUdINxK-4" edge="1">
          <mxGeometry relative="1" as="geometry" />
        </mxCell>
        <mxCell id="4fUZzTiB3mX0XlUdINxK-10" style="edgeStyle=orthogonalEdgeStyle;rounded=0;orthogonalLoop=1;jettySize=auto;html=1;exitX=1;exitY=0.5;exitDx=0;exitDy=0;entryX=0;entryY=0.5;entryDx=0;entryDy=0;" parent="1" source="4fUZzTiB3mX0XlUdINxK-1" target="4fUZzTiB3mX0XlUdINxK-3" edge="1">
          <mxGeometry relative="1" as="geometry" />
        </mxCell>
        <mxCell id="4fUZzTiB3mX0XlUdINxK-11" style="edgeStyle=orthogonalEdgeStyle;rounded=0;orthogonalLoop=1;jettySize=auto;html=1;entryX=0;entryY=0.5;entryDx=0;entryDy=0;" parent="1" source="4fUZzTiB3mX0XlUdINxK-1" target="4fUZzTiB3mX0XlUdINxK-5" edge="1">
          <mxGeometry relative="1" as="geometry" />
        </mxCell>
        <mxCell id="awrhmTumChMF3Pp55dyk-75" style="edgeStyle=orthogonalEdgeStyle;rounded=0;orthogonalLoop=1;jettySize=auto;html=1;exitX=1;exitY=0.5;exitDx=0;exitDy=0;entryX=0;entryY=0.5;entryDx=0;entryDy=0;" edge="1" parent="1" source="4fUZzTiB3mX0XlUdINxK-1" target="awrhmTumChMF3Pp55dyk-71">
          <mxGeometry relative="1" as="geometry" />
        </mxCell>
        <mxCell id="4fUZzTiB3mX0XlUdINxK-1" value="X(N)" style="text;html=1;align=center;verticalAlign=middle;whiteSpace=wrap;rounded=0;" parent="1" vertex="1">
          <mxGeometry x="240" y="450" width="30" height="30" as="geometry" />
        </mxCell>
        <mxCell id="4fUZzTiB3mX0XlUdINxK-17" style="rounded=0;orthogonalLoop=1;jettySize=auto;html=1;exitX=1;exitY=0.5;exitDx=0;exitDy=0;entryX=0;entryY=0;entryDx=0;entryDy=0;" parent="1" source="4fUZzTiB3mX0XlUdINxK-2" target="4fUZzTiB3mX0XlUdINxK-13" edge="1">
          <mxGeometry relative="1" as="geometry" />
        </mxCell>
        <mxCell id="4fUZzTiB3mX0XlUdINxK-2" value="&amp;gt;&amp;gt;1" style="rounded=0;whiteSpace=wrap;html=1;" parent="1" vertex="1">
          <mxGeometry x="360" y="240" width="40" height="30" as="geometry" />
        </mxCell>
        <mxCell id="4fUZzTiB3mX0XlUdINxK-3" value="&amp;gt;&amp;gt;3&lt;span style=&quot;color: rgba(0, 0, 0, 0); font-family: monospace; font-size: 0px; text-align: start; text-wrap-mode: nowrap;&quot;&gt;%3CmxGraphModel%3E%3Croot%3E%3CmxCell%20id%3D%220%22%2F%3E%3CmxCell%20id%3D%221%22%20parent%3D%220%22%2F%3E%3CmxCell%20id%3D%222%22%20value%3D%22%26amp%3Bgt%3B%26amp%3Bgt%3B1%22%20style%3D%22rounded%3D0%3BwhiteSpace%3Dwrap%3Bhtml%3D1%3B%22%20vertex%3D%221%22%20parent%3D%221%22%3E%3CmxGeometry%20x%3D%22354%22%20y%3D%22280%22%20width%3D%2246%22%20height%3D%2230%22%20as%3D%22geometry%22%2F%3E%3C%2FmxCell%3E%3C%2Froot%3E%3C%2FmxGraphModel%3E&lt;/span&gt;" style="rounded=0;whiteSpace=wrap;html=1;" parent="1" vertex="1">
          <mxGeometry x="360" y="320" width="40" height="30" as="geometry" />
        </mxCell>
        <mxCell id="4fUZzTiB3mX0XlUdINxK-21" style="rounded=0;orthogonalLoop=1;jettySize=auto;html=1;exitX=1;exitY=0.5;exitDx=0;exitDy=0;entryX=0;entryY=0;entryDx=0;entryDy=0;" parent="1" source="4fUZzTiB3mX0XlUdINxK-4" target="4fUZzTiB3mX0XlUdINxK-16" edge="1">
          <mxGeometry relative="1" as="geometry" />
        </mxCell>
        <mxCell id="4fUZzTiB3mX0XlUdINxK-4" value="&amp;gt;&amp;gt;6&lt;span style=&quot;color: rgba(0, 0, 0, 0); font-family: monospace; font-size: 0px; text-align: start; text-wrap-mode: nowrap;&quot;&gt;%3CmxGraphModel%3E%3Croot%3E%3CmxCell%20id%3D%220%22%2F%3E%3CmxCell%20id%3D%221%22%20parent%3D%220%22%2F%3E%3CmxCell%20id%3D%222%22%20value%3D%22%26amp%3Bgt%3B%26amp%3Bgt%3B1%22%20style%3D%22rounded%3D0%3BwhiteSpace%3Dwrap%3Bhtml%3D1%3B%22%20vertex%3D%221%22%20parent%3D%221%22%3E%3CmxGeometry%20x%3D%22354%22%20y%3D%22280%22%20width%3D%2246%22%20height%3D%2230%22%20as%3D%22geometry%22%2F%3E%3C%2FmxCell%3E%3C%2Froot%3E%3C%2FmxGraphModel%3E&lt;/span&gt;" style="rounded=0;whiteSpace=wrap;html=1;" parent="1" vertex="1">
          <mxGeometry x="360" y="480" width="40" height="30" as="geometry" />
        </mxCell>
        <mxCell id="4fUZzTiB3mX0XlUdINxK-19" style="rounded=0;orthogonalLoop=1;jettySize=auto;html=1;exitX=1;exitY=0.5;exitDx=0;exitDy=0;entryX=0;entryY=0;entryDx=0;entryDy=0;" parent="1" source="4fUZzTiB3mX0XlUdINxK-5" target="4fUZzTiB3mX0XlUdINxK-15" edge="1">
          <mxGeometry relative="1" as="geometry" />
        </mxCell>
        <mxCell id="4fUZzTiB3mX0XlUdINxK-5" value="&amp;gt;&amp;gt;9&lt;span style=&quot;color: rgba(0, 0, 0, 0); font-family: monospace; font-size: 0px; text-align: start; text-wrap-mode: nowrap;&quot;&gt;%3CmxGraphModel%3E%3Croot%3E%3CmxCell%20id%3D%220%22%2F%3E%3CmxCell%20id%3D%221%22%20parent%3D%220%22%2F%3E%3CmxCell%20id%3D%222%22%20value%3D%22%26amp%3Bgt%3B%26amp%3Bgt%3B1%22%20style%3D%22rounded%3D0%3BwhiteSpace%3Dwrap%3Bhtml%3D1%3B%22%20vertex%3D%221%22%20parent%3D%221%22%3E%3CmxGeometry%20x%3D%22354%22%20y%3D%22280%22%20width%3D%2246%22%20height%3D%2230%22%20as%3D%22geometry%22%2F%3E%3C%2FmxCell%3E%3C%2Froot%3E%3C%2FmxGraphModel%3E&lt;/span&gt;" style="rounded=0;whiteSpace=wrap;html=1;" parent="1" vertex="1">
          <mxGeometry x="360" y="560" width="40" height="30" as="geometry" />
        </mxCell>
        <mxCell id="4fUZzTiB3mX0XlUdINxK-20" style="rounded=0;orthogonalLoop=1;jettySize=auto;html=1;exitX=1;exitY=0.5;exitDx=0;exitDy=0;entryX=0;entryY=1;entryDx=0;entryDy=0;" parent="1" source="4fUZzTiB3mX0XlUdINxK-6" target="4fUZzTiB3mX0XlUdINxK-15" edge="1">
          <mxGeometry relative="1" as="geometry" />
        </mxCell>
        <mxCell id="4fUZzTiB3mX0XlUdINxK-6" value="&amp;gt;&amp;gt;12&lt;span style=&quot;color: rgba(0, 0, 0, 0); font-family: monospace; font-size: 0px; text-align: start; text-wrap-mode: nowrap;&quot;&gt;%3CmxGraphModel%3E%3Croot%3E%3CmxCell%20id%3D%220%22%2F%3E%3CmxCell%20id%3D%221%22%20parent%3D%220%22%2F%3E%3CmxCell%20id%3D%222%22%20value%3D%22%26amp%3Bgt%3B%26amp%3Bgt%3B1%22%20style%3D%22rounded%3D0%3BwhiteSpace%3Dwrap%3Bhtml%3D1%3B%22%20vertex%3D%221%22%20parent%3D%221%22%3E%3CmxGeometry%20x%3D%22354%22%20y%3D%22280%22%20width%3D%2246%22%20height%3D%2230%22%20as%3D%22geometry%22%2F%3E%3C%2FmxCell%3E%3C%2Froot%3E%3C%2FmxGraphModel%32&lt;/span&gt;" style="rounded=0;whiteSpace=wrap;html=1;" parent="1" vertex="1">
          <mxGeometry x="360" y="640" width="40" height="30" as="geometry" />
        </mxCell>
        <mxCell id="awrhmTumChMF3Pp55dyk-74" style="rounded=0;orthogonalLoop=1;jettySize=auto;html=1;exitX=1;exitY=0.5;exitDx=0;exitDy=0;entryX=0;entryY=0;entryDx=0;entryDy=0;" edge="1" parent="1" source="4fUZzTiB3mX0XlUdINxK-13" target="awrhmTumChMF3Pp55dyk-72">
          <mxGeometry relative="1" as="geometry" />
        </mxCell>
        <mxCell id="4fUZzTiB3mX0XlUdINxK-13" value="" style="shape=orEllipse;perimeter=ellipsePerimeter;whiteSpace=wrap;html=1;backgroundOutline=1;" parent="1" vertex="1">
          <mxGeometry x="450" y="280" width="30" height="30" as="geometry" />
        </mxCell>
        <mxCell id="4fUZzTiB3mX0XlUdINxK-25" style="edgeStyle=orthogonalEdgeStyle;rounded=0;orthogonalLoop=1;jettySize=auto;html=1;exitX=1;exitY=0.5;exitDx=0;exitDy=0;" parent="1" source="4fUZzTiB3mX0XlUdINxK-14" edge="1">
          <mxGeometry relative="1" as="geometry">
            <mxPoint x="679.9999999999998" y="465.0689655172414" as="targetPoint" />
          </mxGeometry>
        </mxCell>
        <mxCell id="4fUZzTiB3mX0XlUdINxK-14" value="" style="shape=lineEllipse;perimeter=ellipsePerimeter;whiteSpace=wrap;html=1;backgroundOutline=1;" parent="1" vertex="1">
          <mxGeometry x="610" y="450" width="30" height="30" as="geometry" />
        </mxCell>
        <mxCell id="4fUZzTiB3mX0XlUdINxK-22" style="rounded=0;orthogonalLoop=1;jettySize=auto;html=1;exitX=1;exitY=0.5;exitDx=0;exitDy=0;entryX=0;entryY=1;entryDx=0;entryDy=0;" parent="1" source="4fUZzTiB3mX0XlUdINxK-15" target="4fUZzTiB3mX0XlUdINxK-16" edge="1">
          <mxGeometry relative="1" as="geometry" />
        </mxCell>
        <mxCell id="4fUZzTiB3mX0XlUdINxK-15" value="" style="shape=orEllipse;perimeter=ellipsePerimeter;whiteSpace=wrap;html=1;backgroundOutline=1;" parent="1" vertex="1">
          <mxGeometry x="450" y="600" width="30" height="30" as="geometry" />
        </mxCell>
        <mxCell id="4fUZzTiB3mX0XlUdINxK-24" style="rounded=0;orthogonalLoop=1;jettySize=auto;html=1;exitX=1;exitY=0.5;exitDx=0;exitDy=0;entryX=0;entryY=1;entryDx=0;entryDy=0;" parent="1" source="4fUZzTiB3mX0XlUdINxK-16" target="4fUZzTiB3mX0XlUdINxK-14" edge="1">
          <mxGeometry relative="1" as="geometry" />
        </mxCell>
        <mxCell id="4fUZzTiB3mX0XlUdINxK-16" value="" style="shape=orEllipse;perimeter=ellipsePerimeter;whiteSpace=wrap;html=1;backgroundOutline=1;" parent="1" vertex="1">
          <mxGeometry x="530" y="520" width="30" height="30" as="geometry" />
        </mxCell>
        <mxCell id="4fUZzTiB3mX0XlUdINxK-18" style="rounded=0;orthogonalLoop=1;jettySize=auto;html=1;exitX=1;exitY=0.5;exitDx=0;exitDy=0;entryX=0.125;entryY=0.686;entryDx=0;entryDy=0;entryPerimeter=0;" parent="1" source="4fUZzTiB3mX0XlUdINxK-3" target="4fUZzTiB3mX0XlUdINxK-13" edge="1">
          <mxGeometry relative="1" as="geometry" />
        </mxCell>
        <mxCell id="B0lwOdzmv9wHIdT29idM-50" style="edgeStyle=orthogonalEdgeStyle;rounded=0;orthogonalLoop=1;jettySize=auto;html=1;exitX=1;exitY=0.25;exitDx=0;exitDy=0;entryX=0;entryY=0.5;entryDx=0;entryDy=0;" parent="1" source="B0lwOdzmv9wHIdT29idM-1" target="B0lwOdzmv9wHIdT29idM-47" edge="1">
          <mxGeometry relative="1" as="geometry" />
        </mxCell>
        <mxCell id="B0lwOdzmv9wHIdT29idM-52" style="edgeStyle=orthogonalEdgeStyle;rounded=0;orthogonalLoop=1;jettySize=auto;html=1;exitX=1;exitY=0.5;exitDx=0;exitDy=0;entryX=0;entryY=0.5;entryDx=0;entryDy=0;" parent="1" source="B0lwOdzmv9wHIdT29idM-1" target="B0lwOdzmv9wHIdT29idM-48" edge="1">
          <mxGeometry relative="1" as="geometry" />
        </mxCell>
        <mxCell id="B0lwOdzmv9wHIdT29idM-1" value="initial&lt;div&gt;stage&lt;/div&gt;" style="rounded=0;whiteSpace=wrap;html=1;fillColor=#dae8fc;strokeColor=#6c8ebf;" parent="1" vertex="1">
          <mxGeometry x="240" y="880" width="40" height="160" as="geometry" />
        </mxCell>
        <mxCell id="B0lwOdzmv9wHIdT29idM-16" style="edgeStyle=orthogonalEdgeStyle;rounded=0;orthogonalLoop=1;jettySize=auto;html=1;exitX=1;exitY=0.25;exitDx=0;exitDy=0;entryX=0;entryY=0.25;entryDx=0;entryDy=0;" parent="1" source="B0lwOdzmv9wHIdT29idM-2" target="B0lwOdzmv9wHIdT29idM-3" edge="1">
          <mxGeometry relative="1" as="geometry" />
        </mxCell>
        <mxCell id="B0lwOdzmv9wHIdT29idM-17" style="edgeStyle=orthogonalEdgeStyle;rounded=0;orthogonalLoop=1;jettySize=auto;html=1;exitX=1;exitY=0.5;exitDx=0;exitDy=0;entryX=0;entryY=0.5;entryDx=0;entryDy=0;" parent="1" source="B0lwOdzmv9wHIdT29idM-2" target="B0lwOdzmv9wHIdT29idM-3" edge="1">
          <mxGeometry relative="1" as="geometry" />
        </mxCell>
        <mxCell id="B0lwOdzmv9wHIdT29idM-2" value="Stage&lt;div&gt;0&lt;/div&gt;" style="rounded=0;whiteSpace=wrap;html=1;fillColor=#d5e8d4;strokeColor=#82b366;" parent="1" vertex="1">
          <mxGeometry x="400" y="880" width="40" height="160" as="geometry" />
        </mxCell>
        <mxCell id="B0lwOdzmv9wHIdT29idM-20" style="edgeStyle=orthogonalEdgeStyle;rounded=0;orthogonalLoop=1;jettySize=auto;html=1;exitX=1;exitY=0.25;exitDx=0;exitDy=0;entryX=0;entryY=0.5;entryDx=0;entryDy=0;" parent="1" target="B0lwOdzmv9wHIdT29idM-19" edge="1">
          <mxGeometry relative="1" as="geometry">
            <mxPoint x="660" y="920" as="sourcePoint" />
          </mxGeometry>
        </mxCell>
        <mxCell id="B0lwOdzmv9wHIdT29idM-24" style="edgeStyle=orthogonalEdgeStyle;rounded=0;orthogonalLoop=1;jettySize=auto;html=1;exitX=1;exitY=0.5;exitDx=0;exitDy=0;entryX=0;entryY=0.5;entryDx=0;entryDy=0;" parent="1" target="B0lwOdzmv9wHIdT29idM-22" edge="1">
          <mxGeometry relative="1" as="geometry">
            <mxPoint x="660" y="960" as="sourcePoint" />
          </mxGeometry>
        </mxCell>
        <mxCell id="awrhmTumChMF3Pp55dyk-83" style="edgeStyle=orthogonalEdgeStyle;rounded=0;orthogonalLoop=1;jettySize=auto;html=1;exitX=1;exitY=0.25;exitDx=0;exitDy=0;entryX=0;entryY=0.25;entryDx=0;entryDy=0;" edge="1" parent="1" source="B0lwOdzmv9wHIdT29idM-3" target="awrhmTumChMF3Pp55dyk-79">
          <mxGeometry relative="1" as="geometry" />
        </mxCell>
        <mxCell id="awrhmTumChMF3Pp55dyk-84" style="edgeStyle=orthogonalEdgeStyle;rounded=0;orthogonalLoop=1;jettySize=auto;html=1;exitX=1;exitY=0.5;exitDx=0;exitDy=0;entryX=0;entryY=0.5;entryDx=0;entryDy=0;" edge="1" parent="1" source="B0lwOdzmv9wHIdT29idM-3" target="awrhmTumChMF3Pp55dyk-79">
          <mxGeometry relative="1" as="geometry" />
        </mxCell>
        <mxCell id="B0lwOdzmv9wHIdT29idM-3" value="Stage&lt;div&gt;1&lt;/div&gt;" style="rounded=0;whiteSpace=wrap;html=1;fillColor=#d5e8d4;strokeColor=#82b366;" parent="1" vertex="1">
          <mxGeometry x="480" y="880" width="40" height="160" as="geometry" />
        </mxCell>
        <mxCell id="B0lwOdzmv9wHIdT29idM-29" style="edgeStyle=orthogonalEdgeStyle;rounded=0;orthogonalLoop=1;jettySize=auto;html=1;exitX=1;exitY=0.25;exitDx=0;exitDy=0;entryX=0;entryY=0.25;entryDx=0;entryDy=0;" parent="1" source="B0lwOdzmv9wHIdT29idM-4" target="B0lwOdzmv9wHIdT29idM-5" edge="1">
          <mxGeometry relative="1" as="geometry" />
        </mxCell>
        <mxCell id="B0lwOdzmv9wHIdT29idM-30" style="edgeStyle=orthogonalEdgeStyle;rounded=0;orthogonalLoop=1;jettySize=auto;html=1;exitX=1;exitY=0.5;exitDx=0;exitDy=0;entryX=0;entryY=0.5;entryDx=0;entryDy=0;" parent="1" source="B0lwOdzmv9wHIdT29idM-4" target="B0lwOdzmv9wHIdT29idM-5" edge="1">
          <mxGeometry relative="1" as="geometry" />
        </mxCell>
        <mxCell id="B0lwOdzmv9wHIdT29idM-4" value="Stage&lt;div&gt;i&lt;/div&gt;" style="rounded=0;whiteSpace=wrap;html=1;fillColor=#d5e8d4;strokeColor=#82b366;" parent="1" vertex="1">
          <mxGeometry x="740" y="880" width="40" height="160" as="geometry" />
        </mxCell>
        <mxCell id="B0lwOdzmv9wHIdT29idM-33" style="edgeStyle=orthogonalEdgeStyle;rounded=0;orthogonalLoop=1;jettySize=auto;html=1;exitX=1;exitY=0.25;exitDx=0;exitDy=0;entryX=0;entryY=0.5;entryDx=0;entryDy=0;" parent="1" source="B0lwOdzmv9wHIdT29idM-5" target="B0lwOdzmv9wHIdT29idM-32" edge="1">
          <mxGeometry relative="1" as="geometry" />
        </mxCell>
        <mxCell id="B0lwOdzmv9wHIdT29idM-37" style="edgeStyle=orthogonalEdgeStyle;rounded=0;orthogonalLoop=1;jettySize=auto;html=1;exitX=1;exitY=0.5;exitDx=0;exitDy=0;entryX=0;entryY=0.5;entryDx=0;entryDy=0;" parent="1" source="B0lwOdzmv9wHIdT29idM-5" target="B0lwOdzmv9wHIdT29idM-35" edge="1">
          <mxGeometry relative="1" as="geometry" />
        </mxCell>
        <mxCell id="B0lwOdzmv9wHIdT29idM-5" value="Stage&lt;div&gt;i + 1&lt;/div&gt;" style="rounded=0;whiteSpace=wrap;html=1;fillColor=#d5e8d4;strokeColor=#82b366;" parent="1" vertex="1">
          <mxGeometry x="820" y="880" width="40" height="160" as="geometry" />
        </mxCell>
        <mxCell id="B0lwOdzmv9wHIdT29idM-44" style="edgeStyle=orthogonalEdgeStyle;rounded=0;orthogonalLoop=1;jettySize=auto;html=1;exitX=1;exitY=0.25;exitDx=0;exitDy=0;entryX=0;entryY=0.5;entryDx=0;entryDy=0;" parent="1" source="B0lwOdzmv9wHIdT29idM-6" target="B0lwOdzmv9wHIdT29idM-41" edge="1">
          <mxGeometry relative="1" as="geometry" />
        </mxCell>
        <mxCell id="B0lwOdzmv9wHIdT29idM-45" style="edgeStyle=orthogonalEdgeStyle;rounded=0;orthogonalLoop=1;jettySize=auto;html=1;exitX=1;exitY=0.5;exitDx=0;exitDy=0;entryX=0;entryY=0.5;entryDx=0;entryDy=0;" parent="1" source="B0lwOdzmv9wHIdT29idM-6" target="B0lwOdzmv9wHIdT29idM-42" edge="1">
          <mxGeometry relative="1" as="geometry" />
        </mxCell>
        <mxCell id="B0lwOdzmv9wHIdT29idM-6" value="Stage&lt;div&gt;14&lt;/div&gt;" style="rounded=0;whiteSpace=wrap;html=1;fillColor=#d5e8d4;strokeColor=#82b366;" parent="1" vertex="1">
          <mxGeometry x="940" y="880" width="40" height="160" as="geometry" />
        </mxCell>
        <mxCell id="B0lwOdzmv9wHIdT29idM-10" style="edgeStyle=orthogonalEdgeStyle;rounded=0;orthogonalLoop=1;jettySize=auto;html=1;exitX=1;exitY=0.5;exitDx=0;exitDy=0;entryX=0;entryY=0.25;entryDx=0;entryDy=0;" parent="1" source="B0lwOdzmv9wHIdT29idM-7" target="B0lwOdzmv9wHIdT29idM-1" edge="1">
          <mxGeometry relative="1" as="geometry" />
        </mxCell>
        <mxCell id="B0lwOdzmv9wHIdT29idM-7" value="X" style="text;html=1;align=center;verticalAlign=middle;whiteSpace=wrap;rounded=0;" parent="1" vertex="1">
          <mxGeometry x="160" y="900" width="40" height="40" as="geometry" />
        </mxCell>
        <mxCell id="B0lwOdzmv9wHIdT29idM-11" style="edgeStyle=orthogonalEdgeStyle;rounded=0;orthogonalLoop=1;jettySize=auto;html=1;exitX=1;exitY=0.5;exitDx=0;exitDy=0;entryX=0;entryY=0.5;entryDx=0;entryDy=0;" parent="1" source="B0lwOdzmv9wHIdT29idM-8" target="B0lwOdzmv9wHIdT29idM-1" edge="1">
          <mxGeometry relative="1" as="geometry" />
        </mxCell>
        <mxCell id="B0lwOdzmv9wHIdT29idM-8" value="Y" style="text;html=1;align=center;verticalAlign=middle;whiteSpace=wrap;rounded=0;" parent="1" vertex="1">
          <mxGeometry x="160" y="940" width="40" height="40" as="geometry" />
        </mxCell>
        <mxCell id="B0lwOdzmv9wHIdT29idM-19" value="..." style="text;html=1;align=center;verticalAlign=middle;whiteSpace=wrap;rounded=0;" parent="1" vertex="1">
          <mxGeometry x="690" y="900" width="20" height="40" as="geometry" />
        </mxCell>
        <mxCell id="B0lwOdzmv9wHIdT29idM-21" style="edgeStyle=orthogonalEdgeStyle;rounded=0;orthogonalLoop=1;jettySize=auto;html=1;exitX=1;exitY=0.5;exitDx=0;exitDy=0;" parent="1" source="B0lwOdzmv9wHIdT29idM-19" edge="1">
          <mxGeometry relative="1" as="geometry">
            <mxPoint x="740" y="920" as="targetPoint" />
          </mxGeometry>
        </mxCell>
        <mxCell id="B0lwOdzmv9wHIdT29idM-25" style="edgeStyle=orthogonalEdgeStyle;rounded=0;orthogonalLoop=1;jettySize=auto;html=1;exitX=1;exitY=0.5;exitDx=0;exitDy=0;entryX=0;entryY=0.5;entryDx=0;entryDy=0;" parent="1" source="B0lwOdzmv9wHIdT29idM-22" target="B0lwOdzmv9wHIdT29idM-4" edge="1">
          <mxGeometry relative="1" as="geometry" />
        </mxCell>
        <mxCell id="B0lwOdzmv9wHIdT29idM-22" value="..." style="text;html=1;align=center;verticalAlign=middle;whiteSpace=wrap;rounded=0;" parent="1" vertex="1">
          <mxGeometry x="690" y="940" width="20" height="40" as="geometry" />
        </mxCell>
        <mxCell id="B0lwOdzmv9wHIdT29idM-34" style="edgeStyle=orthogonalEdgeStyle;rounded=0;orthogonalLoop=1;jettySize=auto;html=1;exitX=1;exitY=0.5;exitDx=0;exitDy=0;entryX=0;entryY=0.25;entryDx=0;entryDy=0;" parent="1" source="B0lwOdzmv9wHIdT29idM-32" target="B0lwOdzmv9wHIdT29idM-6" edge="1">
          <mxGeometry relative="1" as="geometry" />
        </mxCell>
        <mxCell id="B0lwOdzmv9wHIdT29idM-32" value="..." style="text;html=1;align=center;verticalAlign=middle;whiteSpace=wrap;rounded=0;" parent="1" vertex="1">
          <mxGeometry x="890" y="900" width="20" height="40" as="geometry" />
        </mxCell>
        <mxCell id="B0lwOdzmv9wHIdT29idM-39" style="edgeStyle=orthogonalEdgeStyle;rounded=0;orthogonalLoop=1;jettySize=auto;html=1;exitX=1;exitY=0.5;exitDx=0;exitDy=0;entryX=0;entryY=0.5;entryDx=0;entryDy=0;" parent="1" source="B0lwOdzmv9wHIdT29idM-35" target="B0lwOdzmv9wHIdT29idM-6" edge="1">
          <mxGeometry relative="1" as="geometry" />
        </mxCell>
        <mxCell id="B0lwOdzmv9wHIdT29idM-35" value="..." style="text;html=1;align=center;verticalAlign=middle;whiteSpace=wrap;rounded=0;" parent="1" vertex="1">
          <mxGeometry x="890" y="940" width="20" height="40" as="geometry" />
        </mxCell>
        <mxCell id="B0lwOdzmv9wHIdT29idM-41" value="X(N)" style="text;html=1;align=center;verticalAlign=middle;whiteSpace=wrap;rounded=0;" parent="1" vertex="1">
          <mxGeometry x="1020" y="900" width="40" height="40" as="geometry" />
        </mxCell>
        <mxCell id="B0lwOdzmv9wHIdT29idM-42" value="Y(N)" style="text;html=1;align=center;verticalAlign=middle;whiteSpace=wrap;rounded=0;" parent="1" vertex="1">
          <mxGeometry x="1020" y="940" width="40" height="40" as="geometry" />
        </mxCell>
        <mxCell id="B0lwOdzmv9wHIdT29idM-51" style="edgeStyle=orthogonalEdgeStyle;rounded=0;orthogonalLoop=1;jettySize=auto;html=1;exitX=1;exitY=0.5;exitDx=0;exitDy=0;entryX=0;entryY=0.25;entryDx=0;entryDy=0;" parent="1" source="B0lwOdzmv9wHIdT29idM-47" target="B0lwOdzmv9wHIdT29idM-2" edge="1">
          <mxGeometry relative="1" as="geometry" />
        </mxCell>
        <mxCell id="B0lwOdzmv9wHIdT29idM-47" value="X(0)" style="text;html=1;align=center;verticalAlign=middle;whiteSpace=wrap;rounded=0;" parent="1" vertex="1">
          <mxGeometry x="320" y="900" width="40" height="40" as="geometry" />
        </mxCell>
        <mxCell id="B0lwOdzmv9wHIdT29idM-53" style="edgeStyle=orthogonalEdgeStyle;rounded=0;orthogonalLoop=1;jettySize=auto;html=1;exitX=1;exitY=0.5;exitDx=0;exitDy=0;entryX=0;entryY=0.5;entryDx=0;entryDy=0;" parent="1" source="B0lwOdzmv9wHIdT29idM-48" target="B0lwOdzmv9wHIdT29idM-2" edge="1">
          <mxGeometry relative="1" as="geometry" />
        </mxCell>
        <mxCell id="B0lwOdzmv9wHIdT29idM-48" value="Y(0)" style="text;html=1;align=center;verticalAlign=middle;whiteSpace=wrap;rounded=0;" parent="1" vertex="1">
          <mxGeometry x="320" y="940" width="40" height="40" as="geometry" />
        </mxCell>
        <mxCell id="B0lwOdzmv9wHIdT29idM-158" value="" style="endArrow=none;html=1;rounded=0;" parent="1" edge="1">
          <mxGeometry width="50" height="50" relative="1" as="geometry">
            <mxPoint x="-10" y="1110" as="sourcePoint" />
            <mxPoint x="230" y="1040" as="targetPoint" />
          </mxGeometry>
        </mxCell>
        <mxCell id="B0lwOdzmv9wHIdT29idM-159" value="" style="endArrow=none;html=1;rounded=0;" parent="1" edge="1">
          <mxGeometry width="50" height="50" relative="1" as="geometry">
            <mxPoint x="320" y="1110" as="sourcePoint" />
            <mxPoint x="290" y="1040" as="targetPoint" />
          </mxGeometry>
        </mxCell>
        <mxCell id="B0lwOdzmv9wHIdT29idM-160" value="" style="endArrow=none;html=1;rounded=0;" parent="1" edge="1">
          <mxGeometry width="50" height="50" relative="1" as="geometry">
            <mxPoint x="650" y="1080" as="sourcePoint" />
            <mxPoint x="730" y="1040" as="targetPoint" />
          </mxGeometry>
        </mxCell>
        <mxCell id="B0lwOdzmv9wHIdT29idM-161" value="" style="endArrow=none;html=1;rounded=0;" parent="1" edge="1">
          <mxGeometry width="50" height="50" relative="1" as="geometry">
            <mxPoint x="1080" y="1070" as="sourcePoint" />
            <mxPoint x="788" y="1040" as="targetPoint" />
          </mxGeometry>
        </mxCell>
        <mxCell id="B0lwOdzmv9wHIdT29idM-96" value="" style="rounded=0;whiteSpace=wrap;html=1;" parent="1" vertex="1">
          <mxGeometry y="1120" width="320" height="390" as="geometry" />
        </mxCell>
        <mxCell id="B0lwOdzmv9wHIdT29idM-68" style="edgeStyle=orthogonalEdgeStyle;rounded=0;orthogonalLoop=1;jettySize=auto;html=1;exitX=0.5;exitY=0;exitDx=0;exitDy=0;entryX=0;entryY=0.5;entryDx=0;entryDy=0;" parent="1" source="B0lwOdzmv9wHIdT29idM-56" target="B0lwOdzmv9wHIdT29idM-67" edge="1">
          <mxGeometry relative="1" as="geometry" />
        </mxCell>
        <mxCell id="B0lwOdzmv9wHIdT29idM-56" value="0&amp;nbsp; &amp;nbsp; &amp;nbsp; &amp;nbsp;1" style="shape=trapezoid;perimeter=trapezoidPerimeter;whiteSpace=wrap;html=1;fixedSize=1;size=10;rotation=90;" parent="1" vertex="1">
          <mxGeometry x="160" y="1297" width="60" height="20" as="geometry" />
        </mxCell>
        <mxCell id="B0lwOdzmv9wHIdT29idM-74" style="edgeStyle=orthogonalEdgeStyle;rounded=0;orthogonalLoop=1;jettySize=auto;html=1;exitX=0.5;exitY=0;exitDx=0;exitDy=0;entryX=0;entryY=0.5;entryDx=0;entryDy=0;" parent="1" source="B0lwOdzmv9wHIdT29idM-59" target="B0lwOdzmv9wHIdT29idM-73" edge="1">
          <mxGeometry relative="1" as="geometry" />
        </mxCell>
        <mxCell id="B0lwOdzmv9wHIdT29idM-59" value="0&amp;nbsp; &amp;nbsp; &amp;nbsp; &amp;nbsp;1" style="shape=trapezoid;perimeter=trapezoidPerimeter;whiteSpace=wrap;html=1;fixedSize=1;size=10;rotation=90;" parent="1" vertex="1">
          <mxGeometry x="160" y="1406" width="60" height="20" as="geometry" />
        </mxCell>
        <mxCell id="B0lwOdzmv9wHIdT29idM-65" style="edgeStyle=orthogonalEdgeStyle;rounded=0;orthogonalLoop=1;jettySize=auto;html=1;exitX=1;exitY=0.5;exitDx=0;exitDy=0;entryX=0.25;entryY=1;entryDx=0;entryDy=0;" parent="1" target="B0lwOdzmv9wHIdT29idM-56" edge="1">
          <mxGeometry relative="1" as="geometry">
            <mxPoint x="-10" y="1292" as="sourcePoint" />
          </mxGeometry>
        </mxCell>
        <mxCell id="B0lwOdzmv9wHIdT29idM-98" style="edgeStyle=orthogonalEdgeStyle;rounded=0;orthogonalLoop=1;jettySize=auto;html=1;exitX=1;exitY=0.5;exitDx=0;exitDy=0;entryX=0;entryY=0.5;entryDx=0;entryDy=0;" parent="1" target="B0lwOdzmv9wHIdT29idM-97" edge="1">
          <mxGeometry relative="1" as="geometry">
            <mxPoint x="-10" y="1292" as="sourcePoint" />
          </mxGeometry>
        </mxCell>
        <mxCell id="B0lwOdzmv9wHIdT29idM-63" value="X" style="text;html=1;align=center;verticalAlign=middle;whiteSpace=wrap;rounded=0;" parent="1" vertex="1">
          <mxGeometry x="-30" y="1277" width="20" height="30" as="geometry" />
        </mxCell>
        <mxCell id="B0lwOdzmv9wHIdT29idM-66" style="edgeStyle=orthogonalEdgeStyle;rounded=0;orthogonalLoop=1;jettySize=auto;html=1;exitX=1;exitY=0.5;exitDx=0;exitDy=0;entryX=0.75;entryY=1;entryDx=0;entryDy=0;" parent="1" source="B0lwOdzmv9wHIdT29idM-64" target="B0lwOdzmv9wHIdT29idM-56" edge="1">
          <mxGeometry relative="1" as="geometry" />
        </mxCell>
        <mxCell id="B0lwOdzmv9wHIdT29idM-64" value="-X" style="text;html=1;align=center;verticalAlign=middle;whiteSpace=wrap;rounded=0;" parent="1" vertex="1">
          <mxGeometry x="120" y="1307" width="20" height="30" as="geometry" />
        </mxCell>
        <mxCell id="B0lwOdzmv9wHIdT29idM-67" value="X(0)" style="text;html=1;align=center;verticalAlign=middle;whiteSpace=wrap;rounded=0;" parent="1" vertex="1">
          <mxGeometry x="334" y="1292" width="36" height="30" as="geometry" />
        </mxCell>
        <mxCell id="B0lwOdzmv9wHIdT29idM-71" style="edgeStyle=orthogonalEdgeStyle;rounded=0;orthogonalLoop=1;jettySize=auto;html=1;exitX=1;exitY=0.5;exitDx=0;exitDy=0;entryX=0.25;entryY=1;entryDx=0;entryDy=0;" parent="1" target="B0lwOdzmv9wHIdT29idM-59" edge="1">
          <mxGeometry relative="1" as="geometry">
            <mxPoint x="-10" y="1400.9999999999998" as="sourcePoint" />
          </mxGeometry>
        </mxCell>
        <mxCell id="B0lwOdzmv9wHIdT29idM-101" style="edgeStyle=orthogonalEdgeStyle;rounded=0;orthogonalLoop=1;jettySize=auto;html=1;exitX=1;exitY=0.5;exitDx=0;exitDy=0;entryX=0;entryY=0.5;entryDx=0;entryDy=0;" parent="1" target="B0lwOdzmv9wHIdT29idM-100" edge="1">
          <mxGeometry relative="1" as="geometry">
            <mxPoint x="-10" y="1400.9999999999998" as="sourcePoint" />
          </mxGeometry>
        </mxCell>
        <mxCell id="B0lwOdzmv9wHIdT29idM-69" value="Y" style="text;html=1;align=center;verticalAlign=middle;whiteSpace=wrap;rounded=0;" parent="1" vertex="1">
          <mxGeometry x="-30" y="1383" width="20" height="40" as="geometry" />
        </mxCell>
        <mxCell id="B0lwOdzmv9wHIdT29idM-72" style="edgeStyle=orthogonalEdgeStyle;rounded=0;orthogonalLoop=1;jettySize=auto;html=1;exitX=1;exitY=0.5;exitDx=0;exitDy=0;entryX=0.75;entryY=1;entryDx=0;entryDy=0;" parent="1" source="B0lwOdzmv9wHIdT29idM-70" target="B0lwOdzmv9wHIdT29idM-59" edge="1">
          <mxGeometry relative="1" as="geometry" />
        </mxCell>
        <mxCell id="B0lwOdzmv9wHIdT29idM-70" value="-Y" style="text;html=1;align=center;verticalAlign=middle;whiteSpace=wrap;rounded=0;" parent="1" vertex="1">
          <mxGeometry x="120" y="1411" width="20" height="40" as="geometry" />
        </mxCell>
        <mxCell id="B0lwOdzmv9wHIdT29idM-73" value="Y(0)" style="text;html=1;align=center;verticalAlign=middle;whiteSpace=wrap;rounded=0;" parent="1" vertex="1">
          <mxGeometry x="334" y="1396" width="36" height="40" as="geometry" />
        </mxCell>
        <mxCell id="B0lwOdzmv9wHIdT29idM-99" style="edgeStyle=orthogonalEdgeStyle;rounded=0;orthogonalLoop=1;jettySize=auto;html=1;exitX=1;exitY=0.5;exitDx=0;exitDy=0;entryX=0;entryY=0.5;entryDx=0;entryDy=0;" parent="1" source="B0lwOdzmv9wHIdT29idM-97" target="B0lwOdzmv9wHIdT29idM-64" edge="1">
          <mxGeometry relative="1" as="geometry" />
        </mxCell>
        <mxCell id="B0lwOdzmv9wHIdT29idM-97" value="x-1" style="rounded=0;whiteSpace=wrap;html=1;" parent="1" vertex="1">
          <mxGeometry x="60" y="1309" width="30" height="26" as="geometry" />
        </mxCell>
        <mxCell id="B0lwOdzmv9wHIdT29idM-102" style="edgeStyle=orthogonalEdgeStyle;rounded=0;orthogonalLoop=1;jettySize=auto;html=1;exitX=1;exitY=0.5;exitDx=0;exitDy=0;entryX=0;entryY=0.5;entryDx=0;entryDy=0;" parent="1" source="B0lwOdzmv9wHIdT29idM-100" target="B0lwOdzmv9wHIdT29idM-70" edge="1">
          <mxGeometry relative="1" as="geometry" />
        </mxCell>
        <mxCell id="B0lwOdzmv9wHIdT29idM-100" value="x-1" style="rounded=0;whiteSpace=wrap;html=1;" parent="1" vertex="1">
          <mxGeometry x="60" y="1418" width="30" height="26" as="geometry" />
        </mxCell>
        <mxCell id="B0lwOdzmv9wHIdT29idM-157" value="Initial Stage&amp;nbsp;" style="text;html=1;align=center;verticalAlign=middle;whiteSpace=wrap;rounded=0;fontSize=18;" parent="1" vertex="1">
          <mxGeometry x="64" y="1480" width="192" height="30" as="geometry" />
        </mxCell>
        <mxCell id="awrhmTumChMF3Pp55dyk-5" value="" style="group" vertex="1" connectable="0" parent="1">
          <mxGeometry x="120" y="1130" width="65" height="60" as="geometry" />
        </mxCell>
        <mxCell id="awrhmTumChMF3Pp55dyk-2" value="rotate_180&lt;div&gt;mem&lt;/div&gt;" style="rounded=0;whiteSpace=wrap;html=1;" vertex="1" parent="awrhmTumChMF3Pp55dyk-5">
          <mxGeometry width="65" height="60" as="geometry" />
        </mxCell>
        <mxCell id="awrhmTumChMF3Pp55dyk-4" value="" style="triangle;whiteSpace=wrap;html=1;" vertex="1" parent="awrhmTumChMF3Pp55dyk-5">
          <mxGeometry y="46" width="11.818181818181818" height="9" as="geometry" />
        </mxCell>
        <mxCell id="awrhmTumChMF3Pp55dyk-32" style="edgeStyle=orthogonalEdgeStyle;rounded=0;orthogonalLoop=1;jettySize=auto;html=1;exitX=0.5;exitY=1;exitDx=0;exitDy=0;entryX=0.75;entryY=1;entryDx=0;entryDy=0;" edge="1" parent="1" source="awrhmTumChMF3Pp55dyk-6" target="awrhmTumChMF3Pp55dyk-13">
          <mxGeometry relative="1" as="geometry" />
        </mxCell>
        <mxCell id="awrhmTumChMF3Pp55dyk-6" value="X &amp;lt; 0?" style="text;html=1;align=center;verticalAlign=middle;whiteSpace=wrap;rounded=0;" vertex="1" parent="1">
          <mxGeometry x="55" y="1149" width="40" height="20" as="geometry" />
        </mxCell>
        <mxCell id="awrhmTumChMF3Pp55dyk-18" style="edgeStyle=orthogonalEdgeStyle;rounded=0;orthogonalLoop=1;jettySize=auto;html=1;exitX=0.5;exitY=0;exitDx=0;exitDy=0;entryX=0;entryY=0.5;entryDx=0;entryDy=0;" edge="1" parent="1" source="awrhmTumChMF3Pp55dyk-13" target="B0lwOdzmv9wHIdT29idM-56">
          <mxGeometry relative="1" as="geometry">
            <Array as="points">
              <mxPoint x="90" y="1260" />
              <mxPoint x="190" y="1260" />
            </Array>
          </mxGeometry>
        </mxCell>
        <mxCell id="awrhmTumChMF3Pp55dyk-21" style="edgeStyle=orthogonalEdgeStyle;rounded=0;orthogonalLoop=1;jettySize=auto;html=1;exitX=0.5;exitY=0;exitDx=0;exitDy=0;entryX=0;entryY=0.5;entryDx=0;entryDy=0;jumpStyle=arc;jumpSize=14;" edge="1" parent="1" source="awrhmTumChMF3Pp55dyk-13" target="B0lwOdzmv9wHIdT29idM-59">
          <mxGeometry relative="1" as="geometry">
            <Array as="points">
              <mxPoint x="90" y="1260" />
              <mxPoint x="260" y="1260" />
              <mxPoint x="260" y="1360" />
              <mxPoint x="190" y="1360" />
            </Array>
          </mxGeometry>
        </mxCell>
        <mxCell id="awrhmTumChMF3Pp55dyk-13" value="" style="shape=trapezoid;perimeter=trapezoidPerimeter;whiteSpace=wrap;html=1;fixedSize=1;size=10;rotation=-180;" vertex="1" parent="1">
          <mxGeometry x="60" y="1237" width="60" height="20" as="geometry" />
        </mxCell>
        <mxCell id="awrhmTumChMF3Pp55dyk-14" value="1&amp;nbsp; &amp;nbsp; &amp;nbsp; 0" style="text;html=1;align=center;verticalAlign=middle;whiteSpace=wrap;rounded=0;" vertex="1" parent="1">
          <mxGeometry x="60" y="1240" width="60" height="13" as="geometry" />
        </mxCell>
        <mxCell id="awrhmTumChMF3Pp55dyk-23" style="edgeStyle=orthogonalEdgeStyle;rounded=0;orthogonalLoop=1;jettySize=auto;html=1;exitX=1;exitY=0.5;exitDx=0;exitDy=0;entryX=0;entryY=0.5;entryDx=0;entryDy=0;" edge="1" parent="1" source="awrhmTumChMF3Pp55dyk-16" target="awrhmTumChMF3Pp55dyk-14">
          <mxGeometry relative="1" as="geometry" />
        </mxCell>
        <mxCell id="awrhmTumChMF3Pp55dyk-16" value="vectoring_mode" style="text;html=1;align=center;verticalAlign=middle;whiteSpace=wrap;rounded=0;" vertex="1" parent="1">
          <mxGeometry x="-110" y="1231.5" width="90" height="30" as="geometry" />
        </mxCell>
        <mxCell id="awrhmTumChMF3Pp55dyk-26" style="edgeStyle=orthogonalEdgeStyle;rounded=0;orthogonalLoop=1;jettySize=auto;html=1;exitX=1;exitY=0.5;exitDx=0;exitDy=0;entryX=0.5;entryY=0;entryDx=0;entryDy=0;" edge="1" parent="1" source="awrhmTumChMF3Pp55dyk-25" target="B0lwOdzmv9wHIdT29idM-1">
          <mxGeometry relative="1" as="geometry" />
        </mxCell>
        <mxCell id="awrhmTumChMF3Pp55dyk-27" style="edgeStyle=orthogonalEdgeStyle;rounded=0;orthogonalLoop=1;jettySize=auto;html=1;exitX=1;exitY=0.5;exitDx=0;exitDy=0;entryX=0.5;entryY=0;entryDx=0;entryDy=0;" edge="1" parent="1" source="awrhmTumChMF3Pp55dyk-25" target="B0lwOdzmv9wHIdT29idM-2">
          <mxGeometry relative="1" as="geometry" />
        </mxCell>
        <mxCell id="awrhmTumChMF3Pp55dyk-28" style="edgeStyle=orthogonalEdgeStyle;rounded=0;orthogonalLoop=1;jettySize=auto;html=1;exitX=1;exitY=0.5;exitDx=0;exitDy=0;entryX=0.5;entryY=0;entryDx=0;entryDy=0;" edge="1" parent="1" source="awrhmTumChMF3Pp55dyk-25" target="B0lwOdzmv9wHIdT29idM-3">
          <mxGeometry relative="1" as="geometry" />
        </mxCell>
        <mxCell id="awrhmTumChMF3Pp55dyk-29" style="edgeStyle=orthogonalEdgeStyle;rounded=0;orthogonalLoop=1;jettySize=auto;html=1;exitX=1;exitY=0.5;exitDx=0;exitDy=0;entryX=0.5;entryY=0;entryDx=0;entryDy=0;" edge="1" parent="1" source="awrhmTumChMF3Pp55dyk-25" target="B0lwOdzmv9wHIdT29idM-4">
          <mxGeometry relative="1" as="geometry" />
        </mxCell>
        <mxCell id="awrhmTumChMF3Pp55dyk-30" style="edgeStyle=orthogonalEdgeStyle;rounded=0;orthogonalLoop=1;jettySize=auto;html=1;exitX=1;exitY=0.5;exitDx=0;exitDy=0;entryX=0.5;entryY=0;entryDx=0;entryDy=0;" edge="1" parent="1" source="awrhmTumChMF3Pp55dyk-25" target="B0lwOdzmv9wHIdT29idM-5">
          <mxGeometry relative="1" as="geometry" />
        </mxCell>
        <mxCell id="awrhmTumChMF3Pp55dyk-31" style="edgeStyle=orthogonalEdgeStyle;rounded=0;orthogonalLoop=1;jettySize=auto;html=1;exitX=1;exitY=0.5;exitDx=0;exitDy=0;entryX=0.5;entryY=0;entryDx=0;entryDy=0;" edge="1" parent="1" source="awrhmTumChMF3Pp55dyk-25" target="B0lwOdzmv9wHIdT29idM-6">
          <mxGeometry relative="1" as="geometry" />
        </mxCell>
        <mxCell id="awrhmTumChMF3Pp55dyk-25" value="vectoring_mode" style="text;html=1;align=center;verticalAlign=middle;whiteSpace=wrap;rounded=0;" vertex="1" parent="1">
          <mxGeometry x="70" y="830" width="90" height="30" as="geometry" />
        </mxCell>
        <mxCell id="awrhmTumChMF3Pp55dyk-33" style="edgeStyle=orthogonalEdgeStyle;rounded=0;orthogonalLoop=1;jettySize=auto;html=1;exitX=0.5;exitY=1;exitDx=0;exitDy=0;entryX=0.25;entryY=1;entryDx=0;entryDy=0;" edge="1" parent="1" source="awrhmTumChMF3Pp55dyk-2" target="awrhmTumChMF3Pp55dyk-13">
          <mxGeometry relative="1" as="geometry" />
        </mxCell>
        <mxCell id="awrhmTumChMF3Pp55dyk-63" value="" style="ellipse;whiteSpace=wrap;html=1;aspect=fixed;fillColor=#000000;" vertex="1" parent="1">
          <mxGeometry x="440" y="1960" width="10" height="10" as="geometry" />
        </mxCell>
        <mxCell id="awrhmTumChMF3Pp55dyk-65" value="" style="ellipse;whiteSpace=wrap;html=1;aspect=fixed;fillColor=#000000;" vertex="1" parent="1">
          <mxGeometry x="185" y="1255" width="10" height="10" as="geometry" />
        </mxCell>
        <mxCell id="awrhmTumChMF3Pp55dyk-73" style="rounded=0;orthogonalLoop=1;jettySize=auto;html=1;exitX=1;exitY=0.5;exitDx=0;exitDy=0;entryX=0;entryY=1;entryDx=0;entryDy=0;" edge="1" parent="1" source="awrhmTumChMF3Pp55dyk-71" target="awrhmTumChMF3Pp55dyk-72">
          <mxGeometry relative="1" as="geometry" />
        </mxCell>
        <mxCell id="awrhmTumChMF3Pp55dyk-71" value="&amp;gt;&amp;gt;14&lt;span style=&quot;color: rgba(0, 0, 0, 0); font-family: monospace; font-size: 0px; text-align: start; text-wrap-mode: nowrap;&quot;&gt;%3CmxGraphModel%3E%3Croot%3E%3CmxCell%20id%3D%220%22%2F%3E%3CmxCell%20id%3D%221%22%20parent%3D%220%22%2F%3E%3CmxCell%20id%3D%222%22%20value%3D%22%26amp%3Bgt%3B%26amp%3Bgt%3B1%22%20style%3D%22rounded%3D0%3BwhiteSpace%3Dwrap%3Bhtml%3D1%3B%22%20vertex%3D%221%22%20parent%3D%221%22%3E%3CmxGeometry%20x%3D%22354%22%20y%3D%22280%22%20width%3D%2246%22%20height%3D%2230%22%20as%3D%22geometry%22%2F%3E%3C%2FmxCell%3E%3C%2Froot%3E%3C%2FmxGraphModel%3E&lt;/span&gt;" style="rounded=0;whiteSpace=wrap;html=1;" vertex="1" parent="1">
          <mxGeometry x="360" y="400" width="40" height="30" as="geometry" />
        </mxCell>
        <mxCell id="awrhmTumChMF3Pp55dyk-76" style="rounded=0;orthogonalLoop=1;jettySize=auto;html=1;exitX=1;exitY=1;exitDx=0;exitDy=0;entryX=0;entryY=0;entryDx=0;entryDy=0;" edge="1" parent="1" source="awrhmTumChMF3Pp55dyk-72" target="4fUZzTiB3mX0XlUdINxK-14">
          <mxGeometry relative="1" as="geometry" />
        </mxCell>
        <mxCell id="awrhmTumChMF3Pp55dyk-72" value="" style="shape=orEllipse;perimeter=ellipsePerimeter;whiteSpace=wrap;html=1;backgroundOutline=1;" vertex="1" parent="1">
          <mxGeometry x="530" y="360" width="30" height="30" as="geometry" />
        </mxCell>
        <mxCell id="awrhmTumChMF3Pp55dyk-77" value="pipeline&lt;div&gt;register&lt;/div&gt;&lt;div&gt;0&lt;/div&gt;" style="rounded=1;whiteSpace=wrap;html=1;fillColor=#fff2cc;strokeColor=#d6b656;" vertex="1" parent="1">
          <mxGeometry x="550" y="810" width="50" height="260" as="geometry" />
        </mxCell>
        <mxCell id="awrhmTumChMF3Pp55dyk-78" value="" style="group" vertex="1" connectable="0" parent="1">
          <mxGeometry x="550" y="1090" width="592" height="480" as="geometry" />
        </mxCell>
        <mxCell id="B0lwOdzmv9wHIdT29idM-153" value="" style="rounded=0;whiteSpace=wrap;html=1;" parent="awrhmTumChMF3Pp55dyk-78" vertex="1">
          <mxGeometry x="106" width="420" height="480" as="geometry" />
        </mxCell>
        <mxCell id="awrhmTumChMF3Pp55dyk-40" style="edgeStyle=orthogonalEdgeStyle;rounded=0;orthogonalLoop=1;jettySize=auto;html=1;exitX=1;exitY=0.5;exitDx=0;exitDy=0;entryX=0;entryY=0.5;entryDx=0;entryDy=0;" edge="1" parent="awrhmTumChMF3Pp55dyk-78" source="B0lwOdzmv9wHIdT29idM-105" target="B0lwOdzmv9wHIdT29idM-109">
          <mxGeometry relative="1" as="geometry" />
        </mxCell>
        <mxCell id="awrhmTumChMF3Pp55dyk-42" style="edgeStyle=orthogonalEdgeStyle;rounded=0;orthogonalLoop=1;jettySize=auto;html=1;exitX=1;exitY=0.5;exitDx=0;exitDy=0;entryX=0.25;entryY=1;entryDx=0;entryDy=0;" edge="1" parent="awrhmTumChMF3Pp55dyk-78" source="B0lwOdzmv9wHIdT29idM-105" target="B0lwOdzmv9wHIdT29idM-108">
          <mxGeometry relative="1" as="geometry">
            <Array as="points">
              <mxPoint x="236" y="350" />
              <mxPoint x="236" y="325" />
            </Array>
          </mxGeometry>
        </mxCell>
        <mxCell id="B0lwOdzmv9wHIdT29idM-105" value="&amp;gt;&amp;gt;i" style="rounded=0;whiteSpace=wrap;html=1;" parent="awrhmTumChMF3Pp55dyk-78" vertex="1">
          <mxGeometry x="186" y="320" width="40" height="60" as="geometry" />
        </mxCell>
        <mxCell id="B0lwOdzmv9wHIdT29idM-127" style="edgeStyle=orthogonalEdgeStyle;rounded=0;orthogonalLoop=1;jettySize=auto;html=1;exitX=1;exitY=0.5;exitDx=0;exitDy=0;entryX=0;entryY=0.5;entryDx=0;entryDy=0;" parent="awrhmTumChMF3Pp55dyk-78" source="B0lwOdzmv9wHIdT29idM-106" target="B0lwOdzmv9wHIdT29idM-119" edge="1">
          <mxGeometry relative="1" as="geometry" />
        </mxCell>
        <mxCell id="B0lwOdzmv9wHIdT29idM-129" style="edgeStyle=orthogonalEdgeStyle;rounded=0;orthogonalLoop=1;jettySize=auto;html=1;exitX=1;exitY=0.5;exitDx=0;exitDy=0;entryX=0;entryY=0;entryDx=0;entryDy=0;" parent="awrhmTumChMF3Pp55dyk-78" source="B0lwOdzmv9wHIdT29idM-106" target="B0lwOdzmv9wHIdT29idM-128" edge="1">
          <mxGeometry relative="1" as="geometry">
            <Array as="points">
              <mxPoint x="166" y="230" />
              <mxPoint x="166" y="140" />
              <mxPoint x="436" y="140" />
              <mxPoint x="436" y="213" />
            </Array>
          </mxGeometry>
        </mxCell>
        <mxCell id="B0lwOdzmv9wHIdT29idM-106" value="X(i)" style="text;html=1;align=center;verticalAlign=middle;whiteSpace=wrap;rounded=0;" parent="awrhmTumChMF3Pp55dyk-78" vertex="1">
          <mxGeometry x="66" y="215" width="36" height="30" as="geometry" />
        </mxCell>
        <mxCell id="B0lwOdzmv9wHIdT29idM-126" style="edgeStyle=orthogonalEdgeStyle;rounded=0;orthogonalLoop=1;jettySize=auto;html=1;exitX=1;exitY=0.5;exitDx=0;exitDy=0;entryX=0;entryY=0.5;entryDx=0;entryDy=0;" parent="awrhmTumChMF3Pp55dyk-78" source="B0lwOdzmv9wHIdT29idM-107" target="B0lwOdzmv9wHIdT29idM-105" edge="1">
          <mxGeometry relative="1" as="geometry" />
        </mxCell>
        <mxCell id="B0lwOdzmv9wHIdT29idM-132" style="edgeStyle=orthogonalEdgeStyle;rounded=0;orthogonalLoop=1;jettySize=auto;html=1;exitX=1;exitY=0.5;exitDx=0;exitDy=0;entryX=0;entryY=1;entryDx=0;entryDy=0;" parent="awrhmTumChMF3Pp55dyk-78" source="B0lwOdzmv9wHIdT29idM-107" target="B0lwOdzmv9wHIdT29idM-131" edge="1">
          <mxGeometry relative="1" as="geometry">
            <Array as="points">
              <mxPoint x="166" y="350" />
              <mxPoint x="166" y="440" />
              <mxPoint x="436" y="440" />
              <mxPoint x="436" y="356" />
            </Array>
          </mxGeometry>
        </mxCell>
        <mxCell id="B0lwOdzmv9wHIdT29idM-107" value="Y(i)" style="text;html=1;align=center;verticalAlign=middle;whiteSpace=wrap;rounded=0;" parent="awrhmTumChMF3Pp55dyk-78" vertex="1">
          <mxGeometry x="66" y="335" width="36" height="30" as="geometry" />
        </mxCell>
        <mxCell id="B0lwOdzmv9wHIdT29idM-130" style="rounded=0;orthogonalLoop=1;jettySize=auto;html=1;exitX=0.5;exitY=0;exitDx=0;exitDy=0;entryX=0;entryY=1;entryDx=0;entryDy=0;" parent="awrhmTumChMF3Pp55dyk-78" source="B0lwOdzmv9wHIdT29idM-108" target="B0lwOdzmv9wHIdT29idM-128" edge="1">
          <mxGeometry relative="1" as="geometry" />
        </mxCell>
        <mxCell id="B0lwOdzmv9wHIdT29idM-108" value="-1&amp;nbsp; &amp;nbsp; &amp;nbsp;1&amp;nbsp; &amp;nbsp; &amp;nbsp; 0" style="shape=trapezoid;perimeter=trapezoidPerimeter;whiteSpace=wrap;html=1;fixedSize=1;size=10;rotation=90;" parent="awrhmTumChMF3Pp55dyk-78" vertex="1">
          <mxGeometry x="306" y="340" width="100" height="20" as="geometry" />
        </mxCell>
        <mxCell id="awrhmTumChMF3Pp55dyk-41" style="edgeStyle=orthogonalEdgeStyle;rounded=0;orthogonalLoop=1;jettySize=auto;html=1;exitX=1;exitY=0.5;exitDx=0;exitDy=0;entryX=0.5;entryY=1;entryDx=0;entryDy=0;" edge="1" parent="awrhmTumChMF3Pp55dyk-78" source="B0lwOdzmv9wHIdT29idM-109" target="B0lwOdzmv9wHIdT29idM-108">
          <mxGeometry relative="1" as="geometry" />
        </mxCell>
        <mxCell id="B0lwOdzmv9wHIdT29idM-109" value="x-1" style="rounded=0;whiteSpace=wrap;html=1;" parent="awrhmTumChMF3Pp55dyk-78" vertex="1">
          <mxGeometry x="253" y="337" width="30" height="26" as="geometry" />
        </mxCell>
        <mxCell id="awrhmTumChMF3Pp55dyk-34" style="edgeStyle=orthogonalEdgeStyle;rounded=0;orthogonalLoop=1;jettySize=auto;html=1;exitX=1;exitY=0.5;exitDx=0;exitDy=0;entryX=0;entryY=0.5;entryDx=0;entryDy=0;" edge="1" parent="awrhmTumChMF3Pp55dyk-78" source="B0lwOdzmv9wHIdT29idM-119" target="B0lwOdzmv9wHIdT29idM-123">
          <mxGeometry relative="1" as="geometry">
            <Array as="points">
              <mxPoint x="236" y="230" />
              <mxPoint x="236" y="205" />
            </Array>
          </mxGeometry>
        </mxCell>
        <mxCell id="awrhmTumChMF3Pp55dyk-35" style="edgeStyle=orthogonalEdgeStyle;rounded=0;orthogonalLoop=1;jettySize=auto;html=1;exitX=1;exitY=0.5;exitDx=0;exitDy=0;entryX=0.5;entryY=1;entryDx=0;entryDy=0;" edge="1" parent="awrhmTumChMF3Pp55dyk-78" source="B0lwOdzmv9wHIdT29idM-119" target="B0lwOdzmv9wHIdT29idM-121">
          <mxGeometry relative="1" as="geometry" />
        </mxCell>
        <mxCell id="B0lwOdzmv9wHIdT29idM-119" value="&amp;gt;&amp;gt;i" style="rounded=0;whiteSpace=wrap;html=1;" parent="awrhmTumChMF3Pp55dyk-78" vertex="1">
          <mxGeometry x="186" y="200" width="40" height="60" as="geometry" />
        </mxCell>
        <mxCell id="B0lwOdzmv9wHIdT29idM-133" style="rounded=0;orthogonalLoop=1;jettySize=auto;html=1;exitX=0.5;exitY=0;exitDx=0;exitDy=0;entryX=0;entryY=0;entryDx=0;entryDy=0;" parent="awrhmTumChMF3Pp55dyk-78" source="B0lwOdzmv9wHIdT29idM-121" target="B0lwOdzmv9wHIdT29idM-131" edge="1">
          <mxGeometry relative="1" as="geometry" />
        </mxCell>
        <mxCell id="B0lwOdzmv9wHIdT29idM-121" value="-1&amp;nbsp; &amp;nbsp; &amp;nbsp;1&amp;nbsp; &amp;nbsp; &amp;nbsp; 0" style="shape=trapezoid;perimeter=trapezoidPerimeter;whiteSpace=wrap;html=1;fixedSize=1;size=10;rotation=90;" parent="awrhmTumChMF3Pp55dyk-78" vertex="1">
          <mxGeometry x="306" y="220" width="100" height="20" as="geometry" />
        </mxCell>
        <mxCell id="B0lwOdzmv9wHIdT29idM-122" style="edgeStyle=orthogonalEdgeStyle;rounded=0;orthogonalLoop=1;jettySize=auto;html=1;exitX=1;exitY=0.5;exitDx=0;exitDy=0;entryX=0.25;entryY=1;entryDx=0;entryDy=0;" parent="awrhmTumChMF3Pp55dyk-78" source="B0lwOdzmv9wHIdT29idM-123" target="B0lwOdzmv9wHIdT29idM-121" edge="1">
          <mxGeometry relative="1" as="geometry" />
        </mxCell>
        <mxCell id="B0lwOdzmv9wHIdT29idM-123" value="x-1" style="rounded=0;whiteSpace=wrap;html=1;" parent="awrhmTumChMF3Pp55dyk-78" vertex="1">
          <mxGeometry x="253" y="192" width="30" height="26" as="geometry" />
        </mxCell>
        <mxCell id="B0lwOdzmv9wHIdT29idM-135" style="edgeStyle=orthogonalEdgeStyle;rounded=0;orthogonalLoop=1;jettySize=auto;html=1;exitX=1;exitY=0.5;exitDx=0;exitDy=0;entryX=0;entryY=0.5;entryDx=0;entryDy=0;" parent="awrhmTumChMF3Pp55dyk-78" source="B0lwOdzmv9wHIdT29idM-128" target="B0lwOdzmv9wHIdT29idM-134" edge="1">
          <mxGeometry relative="1" as="geometry" />
        </mxCell>
        <mxCell id="B0lwOdzmv9wHIdT29idM-128" value="" style="shape=orEllipse;perimeter=ellipsePerimeter;whiteSpace=wrap;html=1;backgroundOutline=1;" parent="awrhmTumChMF3Pp55dyk-78" vertex="1">
          <mxGeometry x="476" y="209" width="30" height="30" as="geometry" />
        </mxCell>
        <mxCell id="B0lwOdzmv9wHIdT29idM-137" style="edgeStyle=orthogonalEdgeStyle;rounded=0;orthogonalLoop=1;jettySize=auto;html=1;exitX=1;exitY=0.5;exitDx=0;exitDy=0;entryX=0;entryY=0.5;entryDx=0;entryDy=0;" parent="awrhmTumChMF3Pp55dyk-78" source="B0lwOdzmv9wHIdT29idM-131" target="B0lwOdzmv9wHIdT29idM-136" edge="1">
          <mxGeometry relative="1" as="geometry" />
        </mxCell>
        <mxCell id="B0lwOdzmv9wHIdT29idM-131" value="" style="shape=orEllipse;perimeter=ellipsePerimeter;whiteSpace=wrap;html=1;backgroundOutline=1;" parent="awrhmTumChMF3Pp55dyk-78" vertex="1">
          <mxGeometry x="476" y="330" width="30" height="30" as="geometry" />
        </mxCell>
        <mxCell id="B0lwOdzmv9wHIdT29idM-134" value="X(i+1)" style="text;html=1;align=center;verticalAlign=middle;whiteSpace=wrap;rounded=0;" parent="awrhmTumChMF3Pp55dyk-78" vertex="1">
          <mxGeometry x="556" y="209" width="36" height="30" as="geometry" />
        </mxCell>
        <mxCell id="B0lwOdzmv9wHIdT29idM-136" value="Y(i+1)" style="text;html=1;align=center;verticalAlign=middle;whiteSpace=wrap;rounded=0;" parent="awrhmTumChMF3Pp55dyk-78" vertex="1">
          <mxGeometry x="556" y="330" width="36" height="30" as="geometry" />
        </mxCell>
        <mxCell id="B0lwOdzmv9wHIdT29idM-154" value="Micro Rotation" style="text;html=1;align=center;verticalAlign=middle;whiteSpace=wrap;rounded=0;fontSize=18;" parent="awrhmTumChMF3Pp55dyk-78" vertex="1">
          <mxGeometry x="266" y="450" width="122" height="30" as="geometry" />
        </mxCell>
        <mxCell id="awrhmTumChMF3Pp55dyk-39" style="edgeStyle=orthogonalEdgeStyle;rounded=0;orthogonalLoop=1;jettySize=auto;html=1;exitX=1;exitY=0.5;exitDx=0;exitDy=0;entryX=0.75;entryY=1;entryDx=0;entryDy=0;" edge="1" parent="awrhmTumChMF3Pp55dyk-78" source="awrhmTumChMF3Pp55dyk-36" target="B0lwOdzmv9wHIdT29idM-121">
          <mxGeometry relative="1" as="geometry" />
        </mxCell>
        <mxCell id="awrhmTumChMF3Pp55dyk-36" value="0" style="text;html=1;align=center;verticalAlign=middle;whiteSpace=wrap;rounded=0;" vertex="1" parent="awrhmTumChMF3Pp55dyk-78">
          <mxGeometry x="286" y="245" width="23" height="20" as="geometry" />
        </mxCell>
        <mxCell id="awrhmTumChMF3Pp55dyk-46" style="edgeStyle=orthogonalEdgeStyle;rounded=0;orthogonalLoop=1;jettySize=auto;html=1;exitX=1;exitY=0.5;exitDx=0;exitDy=0;entryX=0.75;entryY=1;entryDx=0;entryDy=0;" edge="1" parent="awrhmTumChMF3Pp55dyk-78" source="awrhmTumChMF3Pp55dyk-43" target="B0lwOdzmv9wHIdT29idM-108">
          <mxGeometry relative="1" as="geometry" />
        </mxCell>
        <mxCell id="awrhmTumChMF3Pp55dyk-43" value="0" style="text;html=1;align=center;verticalAlign=middle;whiteSpace=wrap;rounded=0;" vertex="1" parent="awrhmTumChMF3Pp55dyk-78">
          <mxGeometry x="286" y="365" width="23" height="20" as="geometry" />
        </mxCell>
        <mxCell id="awrhmTumChMF3Pp55dyk-53" value="" style="group" vertex="1" connectable="0" parent="awrhmTumChMF3Pp55dyk-78">
          <mxGeometry x="391" y="10" width="50" height="40" as="geometry" />
        </mxCell>
        <mxCell id="awrhmTumChMF3Pp55dyk-54" value="&lt;span style=&quot;background-color: transparent; color: light-dark(rgb(0, 0, 0), rgb(255, 255, 255));&quot;&gt;ui_mem&lt;/span&gt;" style="rounded=0;whiteSpace=wrap;html=1;" vertex="1" parent="awrhmTumChMF3Pp55dyk-53">
          <mxGeometry width="50" height="40" as="geometry" />
        </mxCell>
        <mxCell id="awrhmTumChMF3Pp55dyk-55" value="" style="triangle;whiteSpace=wrap;html=1;" vertex="1" parent="awrhmTumChMF3Pp55dyk-53">
          <mxGeometry y="30.666666666666664" width="7.272727272727273" height="6" as="geometry" />
        </mxCell>
        <mxCell id="awrhmTumChMF3Pp55dyk-61" style="edgeStyle=orthogonalEdgeStyle;rounded=0;orthogonalLoop=1;jettySize=auto;html=1;exitX=0.5;exitY=0;exitDx=0;exitDy=0;entryX=0;entryY=0.5;entryDx=0;entryDy=0;jumpStyle=arc;jumpSize=14;" edge="1" parent="awrhmTumChMF3Pp55dyk-78" source="awrhmTumChMF3Pp55dyk-56" target="B0lwOdzmv9wHIdT29idM-121">
          <mxGeometry relative="1" as="geometry" />
        </mxCell>
        <mxCell id="awrhmTumChMF3Pp55dyk-62" style="edgeStyle=orthogonalEdgeStyle;rounded=0;orthogonalLoop=1;jettySize=auto;html=1;exitX=0.5;exitY=0;exitDx=0;exitDy=0;entryX=0;entryY=0.5;entryDx=0;entryDy=0;jumpStyle=arc;jumpSize=14;" edge="1" parent="awrhmTumChMF3Pp55dyk-78" source="awrhmTumChMF3Pp55dyk-56" target="B0lwOdzmv9wHIdT29idM-108">
          <mxGeometry relative="1" as="geometry">
            <Array as="points">
              <mxPoint x="356" y="160" />
              <mxPoint x="396" y="160" />
              <mxPoint x="396" y="290" />
              <mxPoint x="356" y="290" />
            </Array>
          </mxGeometry>
        </mxCell>
        <mxCell id="awrhmTumChMF3Pp55dyk-56" value="" style="shape=trapezoid;perimeter=trapezoidPerimeter;whiteSpace=wrap;html=1;fixedSize=1;size=10;rotation=-180;" vertex="1" parent="awrhmTumChMF3Pp55dyk-78">
          <mxGeometry x="326" y="90" width="60" height="20" as="geometry" />
        </mxCell>
        <mxCell id="awrhmTumChMF3Pp55dyk-57" value="1&amp;nbsp; &amp;nbsp; &amp;nbsp; 0" style="text;html=1;align=center;verticalAlign=middle;whiteSpace=wrap;rounded=0;" vertex="1" parent="awrhmTumChMF3Pp55dyk-78">
          <mxGeometry x="336" y="93" width="40" height="13" as="geometry" />
        </mxCell>
        <mxCell id="awrhmTumChMF3Pp55dyk-58" style="edgeStyle=orthogonalEdgeStyle;rounded=0;orthogonalLoop=1;jettySize=auto;html=1;exitX=0.5;exitY=1;exitDx=0;exitDy=0;entryX=0.25;entryY=1;entryDx=0;entryDy=0;" edge="1" parent="awrhmTumChMF3Pp55dyk-78" source="awrhmTumChMF3Pp55dyk-54" target="awrhmTumChMF3Pp55dyk-56">
          <mxGeometry relative="1" as="geometry">
            <Array as="points">
              <mxPoint x="416" y="70" />
              <mxPoint x="371" y="70" />
            </Array>
          </mxGeometry>
        </mxCell>
        <mxCell id="awrhmTumChMF3Pp55dyk-60" style="edgeStyle=orthogonalEdgeStyle;rounded=0;orthogonalLoop=1;jettySize=auto;html=1;exitX=0.5;exitY=1;exitDx=0;exitDy=0;entryX=0.75;entryY=1;entryDx=0;entryDy=0;" edge="1" parent="awrhmTumChMF3Pp55dyk-78" source="awrhmTumChMF3Pp55dyk-59" target="awrhmTumChMF3Pp55dyk-56">
          <mxGeometry relative="1" as="geometry" />
        </mxCell>
        <mxCell id="awrhmTumChMF3Pp55dyk-59" value="ui" style="text;html=1;align=center;verticalAlign=middle;whiteSpace=wrap;rounded=0;" vertex="1" parent="awrhmTumChMF3Pp55dyk-78">
          <mxGeometry x="277.5" y="30" width="40" height="20" as="geometry" />
        </mxCell>
        <mxCell id="awrhmTumChMF3Pp55dyk-66" value="" style="ellipse;whiteSpace=wrap;html=1;aspect=fixed;fillColor=#000000;" vertex="1" parent="awrhmTumChMF3Pp55dyk-78">
          <mxGeometry x="351" y="155" width="10" height="10" as="geometry" />
        </mxCell>
        <mxCell id="awrhmTumChMF3Pp55dyk-70" style="edgeStyle=orthogonalEdgeStyle;rounded=0;orthogonalLoop=1;jettySize=auto;html=1;exitX=1;exitY=0.5;exitDx=0;exitDy=0;entryX=1;entryY=0.5;entryDx=0;entryDy=0;" edge="1" parent="awrhmTumChMF3Pp55dyk-78" source="awrhmTumChMF3Pp55dyk-67" target="awrhmTumChMF3Pp55dyk-56">
          <mxGeometry relative="1" as="geometry" />
        </mxCell>
        <mxCell id="awrhmTumChMF3Pp55dyk-67" value="vectoring_mode" style="text;html=1;align=center;verticalAlign=middle;whiteSpace=wrap;rounded=0;" vertex="1" parent="awrhmTumChMF3Pp55dyk-78">
          <mxGeometry y="84.5" width="90" height="30" as="geometry" />
        </mxCell>
        <mxCell id="awrhmTumChMF3Pp55dyk-79" value="Stage&lt;div&gt;2&lt;/div&gt;" style="rounded=0;whiteSpace=wrap;html=1;fillColor=#d5e8d4;strokeColor=#82b366;" vertex="1" parent="1">
          <mxGeometry x="620" y="880" width="40" height="160" as="geometry" />
        </mxCell>
        <mxCell id="awrhmTumChMF3Pp55dyk-80" style="edgeStyle=orthogonalEdgeStyle;rounded=0;orthogonalLoop=1;jettySize=auto;html=1;exitX=1;exitY=0.25;exitDx=0;exitDy=0;entryX=0;entryY=0.423;entryDx=0;entryDy=0;entryPerimeter=0;" edge="1" parent="1" source="B0lwOdzmv9wHIdT29idM-3" target="awrhmTumChMF3Pp55dyk-77">
          <mxGeometry relative="1" as="geometry" />
        </mxCell>
        <mxCell id="awrhmTumChMF3Pp55dyk-81" style="edgeStyle=orthogonalEdgeStyle;rounded=0;orthogonalLoop=1;jettySize=auto;html=1;exitX=1;exitY=0.5;exitDx=0;exitDy=0;entryX=0;entryY=0.577;entryDx=0;entryDy=0;entryPerimeter=0;" edge="1" parent="1" source="B0lwOdzmv9wHIdT29idM-3" target="awrhmTumChMF3Pp55dyk-77">
          <mxGeometry relative="1" as="geometry" />
        </mxCell>
        <mxCell id="awrhmTumChMF3Pp55dyk-82" style="edgeStyle=orthogonalEdgeStyle;rounded=0;orthogonalLoop=1;jettySize=auto;html=1;exitX=1;exitY=0.5;exitDx=0;exitDy=0;entryX=-0.037;entryY=0.132;entryDx=0;entryDy=0;entryPerimeter=0;" edge="1" parent="1">
          <mxGeometry relative="1" as="geometry">
            <mxPoint x="161.85" y="845.35" as="sourcePoint" />
            <mxPoint x="550.0000000000001" y="844.6700000000002" as="targetPoint" />
          </mxGeometry>
        </mxCell>
      </root>
    </mxGraphModel>
  </diagram>
</mxfile>
